<?xml version="1.0" encoding="UTF-8"?>
<svg width="512" height="512" viewBox="0 0 512 512" fill="none" xmlns="http://www.w3.org/2000/svg">
  <!-- Background circle -->
  <circle cx="256" cy="256" r="256" fill="#0052D4"/>
  
  <!-- Train body -->
  <rect x="106" y="146" width="300" height="220" rx="20" fill="#FFFFFF"/>
  
  <!-- Train windows -->
  <rect x="136" y="176" width="60" height="60" rx="10" fill="#0052D4"/>
  <rect x="226" y="176" width="60" height="60" rx="10" fill="#0052D4"/>
  <rect x="316" y="176" width="60" height="60" rx="10" fill="#0052D4"/>
  
  <!-- Train door -->
  <rect x="196" y="266" width="120" height="100" rx="10" fill="#0052D4"/>
  <rect x="206" y="276" width="100" height="80" rx="5" fill="#FFFFFF"/>
  
  <!-- Train tracks -->
  <rect x="86" y="366" width="340" height="20" fill="#333333"/>
  <rect x="86" y="396" width="340" height="10" fill="#333333"/>
  
  <!-- Wheels -->
  <circle cx="156" cy="386" r="25" fill="#333333"/>
  <circle cx="156" cy="386" r="15" fill="#555555"/>
  <circle cx="356" cy="386" r="25" fill="#333333"/>
  <circle cx="356" cy="386" r="15" fill="#555555"/>
  
  <!-- Smokestacks -->
  <rect x="126" y="126" width="20" height="20" fill="#333333"/>
  <path d="M126 126 Q136 106 146 126" fill="#333333"/>
</svg> 